<svg width="80" height="80" viewBox="0 0 80 80" fill="none" xmlns="http://www.w3.org/2000/svg">
<path fill-rule="evenodd" clip-rule="evenodd" d="M11.1149 26.6051C11.3408 23.3007 12.9296 20.1995 15.5579 17.933C18.1861 15.6664 21.6563 14.4048 25.2619 14.4051H27.1354V12.0886C27.1354 11.2695 27.4898 10.4839 28.1205 9.90463C28.7513 9.32541 29.6069 9 30.4989 9C31.391 9 32.2465 9.32541 32.8773 9.90463C33.5081 10.4839 33.8624 11.2695 33.8624 12.0886V14.4051H35.7359C39.3415 14.4048 42.8117 15.6664 45.44 17.933C48.0682 20.1995 49.657 23.3007 49.8829 26.6051L50.6263 37.5202C50.9095 41.682 52.4313 45.6925 55.0258 49.1148C55.5618 49.8223 55.8893 50.6452 55.9765 51.5033C56.0637 52.3614 55.9075 53.2257 55.5232 54.012C55.1389 54.7983 54.5395 55.4799 53.7834 55.9905C53.0273 56.5012 52.1401 56.8234 51.2082 56.9259L39.7486 58.1861V61.5063C39.7486 63.759 38.7741 65.9194 37.0394 67.5123C35.3048 69.1051 32.9521 70 30.4989 70C28.0457 70 25.693 69.1051 23.9584 67.5123C22.2237 65.9194 21.2492 63.759 21.2492 61.5063V58.1861L9.78968 56.9228C8.8583 56.82 7.97172 56.4977 7.21606 55.9873C6.4604 55.4769 5.86136 54.7957 5.47714 54.0098C5.09291 53.224 4.93657 52.3603 5.02329 51.5025C5.11002 50.6448 5.43686 49.8223 5.97208 49.1148C8.56636 45.6924 10.0881 41.6819 10.3716 37.5202L11.1149 26.6051ZM26.2945 61.5063C26.2945 62.5303 26.7375 63.5123 27.526 64.2363C28.3144 64.9603 29.3838 65.3671 30.4989 65.3671C31.614 65.3671 32.6834 64.9603 33.4719 64.2363C34.2604 63.5123 34.7033 62.5303 34.7033 61.5063V59.1899H26.2945V61.5063Z" fill="#FE0037"/>
</svg>
