<svg width="80" height="80" viewBox="0 0 80 80" fill="none" xmlns="http://www.w3.org/2000/svg">
<path d="M55 14.0196C59.5606 16.6527 63.3478 20.4398 65.9808 25.0004C68.6139 29.561 70 34.7343 70 40.0004C70 45.2665 68.6137 50.4398 65.9806 55.0004C63.3475 59.5609 59.5603 63.348 54.9997 65.981C50.439 68.614 45.2657 70.0001 39.9995 70C34.7334 69.9999 29.5601 68.6136 24.9995 65.9805C20.439 63.3474 16.6519 59.5602 14.0189 54.9995C11.3859 50.4389 9.99987 45.2656 10 39.9995L10.015 39.0275C10.183 33.8465 11.6906 28.7974 14.3909 24.3726C17.0912 19.9477 20.892 16.298 25.4227 13.7793C29.9534 11.2606 35.0594 9.95887 40.243 10.001C45.4266 10.0431 50.5108 11.4277 55 14.0196ZM40 21.9996C39.2044 21.9996 38.4413 22.3157 37.8787 22.8783C37.3161 23.4409 37 24.2039 37 24.9996C34.6131 24.9996 32.3239 25.9478 30.636 27.6356C28.9482 29.3234 28 31.6126 28 33.9995C28 36.3864 28.9482 38.6756 30.636 40.3634C32.3239 42.0512 34.6131 42.9994 37 42.9994V48.9994C36.5026 49.0259 36.0062 48.9311 35.5536 48.7231C35.101 48.5151 34.7058 48.2001 34.402 47.8054L34.198 47.5024C33.7875 46.8405 33.1357 46.3641 32.3804 46.174C31.6251 45.984 30.8254 46.0951 30.1506 46.484C29.4757 46.8729 28.9786 47.5089 28.7642 48.2577C28.5499 49.0065 28.6351 49.8093 29.002 50.4964C29.7677 51.8244 30.8599 52.9348 32.1751 53.7223C33.4903 54.5098 34.9848 54.9484 36.517 54.9963H37C36.9994 55.7317 37.2688 56.4416 37.7571 56.9913C38.2455 57.5411 38.9187 57.8923 39.649 57.9783L40 57.9993C40.7956 57.9993 41.5587 57.6833 42.1213 57.1207C42.6839 56.558 43 55.795 43 54.9993L43.528 54.9844C45.8668 54.8492 48.0607 53.8074 49.6436 52.0803C51.2265 50.3532 52.0735 48.077 52.0048 45.7353C51.936 43.3936 50.9569 41.171 49.2755 39.5398C47.594 37.9085 45.3427 36.9972 43 36.9995V30.9995C44.074 30.9635 45.013 31.4195 45.598 32.1935L45.802 32.4965C46.2125 33.1585 46.8643 33.6348 47.6196 33.8249C48.3749 34.0149 49.1746 33.9038 49.8494 33.5149C50.5243 33.1261 51.0214 32.49 51.2358 31.7412C51.4501 30.9924 51.3649 30.1896 50.998 29.5025C50.2327 28.174 49.1406 27.063 47.8254 26.2749C46.5102 25.4869 45.0155 25.0479 43.483 24.9996H43C43 24.2039 42.6839 23.4409 42.1213 22.8783C41.5587 22.3157 40.7956 21.9996 40 21.9996ZM43 42.9994C43.7957 42.9994 44.5587 43.3155 45.1213 43.8781C45.6839 44.4407 46 45.2038 46 45.9994C46 46.7951 45.6839 47.5581 45.1213 48.1207C44.5587 48.6833 43.7957 48.9994 43 48.9994V42.9994ZM37 30.9995V36.9995C36.2044 36.9995 35.4413 36.6834 34.8787 36.1208C34.3161 35.5582 34 34.7951 34 33.9995C34 33.2039 34.3161 32.4408 34.8787 31.8782C35.4413 31.3156 36.2044 30.9995 37 30.9995Z" fill="#FE0037"/>
</svg>
