<svg width="18" height="23" viewBox="0 0 18 23" fill="none" xmlns="http://www.w3.org/2000/svg">
<path d="M9.29344 22.1366C9.88306 22.1366 10.1829 21.7403 10.7826 20.9263L17.1779 12.3882C17.4672 11.992 17.6386 11.5952 17.6386 11.1669C17.6386 10.7277 17.4672 10.3419 17.1779 9.94565L10.7826 1.39707C10.1829 0.593545 9.8826 0.197266 9.29344 0.197266C8.71525 0.197266 8.41495 0.593545 7.81528 1.39707L1.41996 9.94565C1.13063 10.3419 0.959229 10.7277 0.959229 11.1669C0.959229 11.5957 1.13063 11.992 1.41996 12.3882L7.81528 20.9263C8.41495 21.7399 8.71525 22.1366 9.29344 22.1366Z" fill="#2FFF00"/>
</svg>
