<svg width="148" height="151" viewBox="0 0 148 151" fill="none" xmlns="http://www.w3.org/2000/svg">
<path d="M106.256 18.0551C94.2233 25.122 87.1078 38.583 86.6415 52.3782C84.3113 49.8525 82.0042 47.028 80.6169 43.974C78.3201 38.6847 76.282 30.8296 79.3379 25.5335C80.7185 23.2349 77.5652 20.4652 75.3805 21.4988C66.0205 25.886 59.9655 33.4155 56.7374 43.2685C54.734 49.7284 53.6085 57.2786 54.5709 64.2687C53.0217 63.3069 51.5966 62.2946 50.2452 61.1076C47.0414 58.2136 44.307 54.6945 42.4418 50.8218C39.4925 44.6401 37.7533 36.8081 38.2348 29.8094C38.3316 29.3358 38.6031 28.9359 38.6999 28.4623C38.9945 27.7635 38.2177 26.9216 37.4726 27.2247C30.5921 29.8794 26.4314 37.7961 23.3062 43.9888C19.5643 51.156 17.1464 59.0873 16.5724 67.2815C16.0404 74.1559 17.449 80.8197 19.3544 87.2815C24.3588 104.206 34.7665 121.248 50.8986 129.593C71.4258 140.202 99.2408 132.793 115.683 117.708C128.808 105.855 130.673 88.7403 125.448 72.3397C120.195 55.5161 105.469 40.6654 110.908 21.6625C111.737 18.7199 108.961 16.5205 106.256 18.0551ZM99.7344 119.421C98.5431 120.05 97.3013 120.555 96.0595 121.061C92.7066 122.425 89.179 123.715 85.6239 124.583C79.9219 124.442 74.3398 123.529 69.7152 120.345C65.84 117.579 63.6023 113.858 62.7811 109.705C68.4813 113.755 77.4249 114.747 83.6467 114.387C87.0313 114.168 86.9509 108.99 83.7368 108.561C73.2714 107.029 75.6826 93.7455 78.9338 83.5936C82.7841 90.5666 91.1281 95.4219 93.5155 103.424C94.0482 105.089 96.4162 105.573 97.5801 104.521C100.8 101.763 103.294 98.2878 104.317 94.398C106.43 98.1697 107.551 102.346 107.029 106.755C106.337 111.813 103.649 116.236 99.7344 119.421ZM108.338 50.2086C110.755 54.7254 113.369 59.017 115.538 63.6348C121.436 75.9983 125.706 90.7613 118.586 103.5C116.64 106.898 114.192 109.775 111.243 112.133C111.708 110.786 111.999 109.365 112.289 107.944C113.654 98.849 109.147 90.2616 103.283 83.6739C101.403 81.5439 97.3554 83.3354 98.568 86.3158C100.185 90.2896 99.2127 94.3036 96.7924 97.6042C95.0556 94.4029 92.5507 91.8036 89.9215 89.2548C86.0146 85.3443 80.6827 80.4214 82.5387 74.311C83.4415 71.1936 79.3222 69.2511 77.8216 72.3222C73.7389 80.7861 67.6655 97.8758 72.7516 107.53C68.0892 106.388 63.9931 104.146 63.4707 100.017C63.0264 96.4343 58.2484 96.7862 57.5204 99.9772C54.0841 112.52 60.1635 121.771 69.4273 126.396C67.4593 126.184 65.4912 125.971 63.4221 125.511C46.8188 121.7 35.5273 106.754 29.2896 91.7788C26.7128 85.4455 24.458 78.8365 23.845 71.9937C23.3561 65.1003 25.0563 57.8953 27.3586 51.4585C28.9011 47.0677 30.8435 42.9484 33.3101 39.0501C33.8026 38.126 34.4698 37.2756 34.9622 36.3515C34.5459 41.7315 36.0744 47.6229 38.068 52.1671C41.6006 60.1379 48.5682 68.0137 56.7058 71.6502L56.7563 71.7744C58.4005 76.1713 65.2305 73.3924 63.4621 69.046C60.6327 62.0919 61.6255 53.1483 63.551 46.1411C65.085 40.3064 67.8924 35.1114 72.1523 31.3519C71.9107 36.8055 73.3382 42.4485 75.5065 47.0664C76.3381 48.7544 83.2911 58.373 88.0398 61.5068C89.9744 64.4829 95.5437 63.2301 94.7731 59.2015C92.539 47.6629 96.4805 36.3617 104.274 28.1249C103.447 35.6981 104.814 43.6817 108.338 50.2086Z" fill="#ffcc00"/>
</svg>
