<svg width="80" height="80" viewBox="0 0 80 80" fill="none" xmlns="http://www.w3.org/2000/svg">
<path d="M39.9735 48.8333C38.2233 48.8349 36.5121 48.3165 35.057 47.3439C33.6019 46.3713 32.4685 44.9883 31.8007 43.3705C31.1328 41.7528 30.9606 39.973 31.306 38.2572C31.6513 36.5414 32.4985 34.9668 33.7402 33.7333C33.9744 33.5013 34.252 33.3177 34.5571 33.193C34.8623 33.0683 35.189 33.0049 35.5186 33.0064C35.8483 33.008 36.1744 33.0744 36.4784 33.202C36.7823 33.3296 37.0582 33.5158 37.2902 33.75C37.5222 33.9842 37.7058 34.2618 37.8305 34.5669C37.9552 34.8721 38.0186 35.1988 38.0171 35.5285C38.0155 35.8581 37.9491 36.1842 37.8215 36.4882C37.6939 36.7921 37.5077 37.068 37.2735 37.3C36.9139 37.6516 36.6284 38.0716 36.4337 38.5354C36.2391 38.9991 36.1393 39.4971 36.1402 40C36.0959 40.7917 36.3003 41.5774 36.7249 42.2471C37.1494 42.9168 37.7728 43.4369 38.5078 43.7345C39.2427 44.0322 40.0524 44.0925 40.8233 43.9069C41.5942 43.7214 42.2878 43.2994 42.8068 42.7C43.2813 42.2298 43.9222 41.966 44.5902 41.966C45.2581 41.966 45.8991 42.2298 46.3735 42.7C46.8358 43.1786 47.0942 43.8179 47.0942 44.4833C47.0942 45.1487 46.8358 45.7881 46.3735 46.2667C45.5311 47.0987 44.5311 47.7543 43.4322 48.195C42.3332 48.6357 41.1574 48.8527 39.9735 48.8333Z" fill="#FE0037"/>
<path d="M74.14 40C74.14 49.0616 70.5403 57.752 64.1328 64.1595C57.7253 70.567 49.0349 74.1667 39.9733 74.1667C30.9117 74.1667 22.2213 70.567 15.8138 64.1595C9.40633 57.752 5.80664 49.0616 5.80664 40C5.80664 30.9384 9.40633 22.248 15.8138 15.8405C22.2213 9.43303 30.9117 5.83334 39.9733 5.83334C40.6363 5.83334 41.2722 6.09673 41.7411 6.56557C42.2099 7.03441 42.4733 7.67029 42.4733 8.33334V21C42.4647 21.6604 42.1985 22.2912 41.7315 22.7582C41.2645 23.2252 40.6337 23.4914 39.9733 23.5C36.7088 23.4775 33.5136 24.4419 30.8066 26.2667C28.0844 28.0708 25.9614 30.6452 24.7087 33.6612C23.456 36.6772 23.1304 39.9981 23.7733 43.2C24.8189 46.9986 27.1764 50.304 30.4275 52.5296C33.6785 54.7552 37.6129 55.7571 41.5325 55.3575C45.4521 54.958 49.1034 53.1828 51.8385 50.347C54.5736 47.5112 56.2157 43.7981 56.4733 39.8667C56.4693 39.5373 56.5312 39.2104 56.6554 38.9052C56.7796 38.6001 56.9636 38.3229 57.1966 38.0899C57.4295 37.857 57.7067 37.673 58.0119 37.5488C58.317 37.4246 58.6439 37.3626 58.9733 37.3667H71.64C71.9798 37.3662 72.3162 37.435 72.6285 37.5689C72.9409 37.7028 73.2226 37.8989 73.4566 38.1454C73.6906 38.3919 73.8718 38.6834 73.9893 39.0023C74.1068 39.3212 74.1581 39.6607 74.14 40Z" fill="#FE0037"/>
<path d="M72.9398 20.4333C72.8528 21.0819 72.5874 21.6935 72.1732 22.2L64.9398 29.4333C63.9139 30.4696 62.6403 31.2269 61.2398 31.6333C60.4199 31.888 59.565 32.0117 58.7065 32C58.1186 32.0493 57.5277 32.0493 56.9398 32L52.5065 31.1333L44.9065 38.7667C44.4303 39.2239 43.7998 39.4856 43.1398 39.5C42.477 39.4994 41.8416 39.2356 41.3732 38.7667C41.1373 38.5368 40.9499 38.2621 40.8219 37.9587C40.6939 37.6553 40.6279 37.3293 40.6279 37C40.6279 36.6707 40.6939 36.3447 40.8219 36.0413C40.9499 35.7379 41.1373 35.4632 41.3732 35.2333L49.0065 27.5667L48.1065 23.1667C47.8375 21.7484 47.906 20.2868 48.3065 18.9C48.713 17.4995 49.4702 16.226 50.5065 15.2L57.6732 8.03333C58.1656 7.58537 58.7809 7.29513 59.4398 7.2C60.0565 7.1084 60.6863 7.21337 61.2398 7.5C61.7899 7.77976 62.2514 8.20673 62.5732 8.73333C62.8987 9.3226 63.0381 9.99661 62.9732 10.6667L61.9065 18.2L69.4065 17.1667C70.0343 17.105 70.6661 17.2344 71.2192 17.5377C71.7723 17.841 72.221 18.3042 72.5065 18.8667C72.778 19.3451 72.9269 19.8834 72.9398 20.4333Z" fill="#FE0037"/>
</svg>
