<svg width="80" height="80" viewBox="0 0 80 80" fill="none" xmlns="http://www.w3.org/2000/svg">
<path d="M72.5 52.5H70V22.5C70 20.5109 69.2098 18.6032 67.8033 17.1967C66.3968 15.7902 64.4891 15 62.5 15H17.5C15.5109 15 13.6032 15.7902 12.1967 17.1967C10.7902 18.6032 10 20.5109 10 22.5V52.5H7.5C6.83696 52.5 6.20107 52.7634 5.73223 53.2322C5.26339 53.7011 5 54.337 5 55V60C5 61.9891 5.79018 63.8968 7.1967 65.3033C8.60322 66.7098 10.5109 67.5 12.5 67.5H67.5C69.4891 67.5 71.3968 66.7098 72.8033 65.3033C74.2098 63.8968 75 61.9891 75 60V55C75 54.337 74.7366 53.7011 74.2678 53.2322C73.7989 52.7634 73.163 52.5 72.5 52.5ZM35 22.5H45C45.663 22.5 46.2989 22.7634 46.7678 23.2322C47.2366 23.7011 47.5 24.337 47.5 25C47.5 25.663 47.2366 26.2989 46.7678 26.7678C46.2989 27.2366 45.663 27.5 45 27.5H35C34.337 27.5 33.7011 27.2366 33.2322 26.7678C32.7634 26.2989 32.5 25.663 32.5 25C32.5 24.337 32.7634 23.7011 33.2322 23.2322C33.7011 22.7634 34.337 22.5 35 22.5ZM70 60C70 60.663 69.7366 61.2989 69.2678 61.7678C68.7989 62.2366 68.163 62.5 67.5 62.5H12.5C11.837 62.5 11.2011 62.2366 10.7322 61.7678C10.2634 61.2989 10 60.663 10 60V57.5H70V60Z" fill="#FE0037"/>
</svg>
