<svg width="209" height="62" viewBox="0 0 209 62" fill="none" xmlns="http://www.w3.org/2000/svg">
<path d="M0.641113 0.501343L13.3031 8.80974V49.4111L21.4255 54.7539V9.37086H44.7458V20.4171L34.2665 27.2915V37.7305L52.8683 25.5268V0.501343H0.641113Z" fill="#FF0038"/>
<path d="M44.7458 54.7594L52.8683 49.4165V28.6089L44.7458 33.9355V54.7594Z" fill="#FF0038"/>
<path d="M23.7849 56.3045L31.9074 61.6473V18.9533L23.7849 13.624V56.3045Z" fill="#FF0038"/>
<path d="M66.4204 14.7164H71.7913V41.1244H66.4204V14.7164ZM75.6612 26.5081V20.1135C75.6891 19.8233 75.6154 19.5323 75.4552 19.3003C75.2336 19.12 74.9586 19.0387 74.6851 19.0726H67.9605V14.7164H76.2988C78.0008 14.7164 79.2148 15.1248 79.9407 15.9417C80.6666 16.7585 81.0304 17.8862 81.032 19.3247V27.2969C81.032 28.7427 80.6683 29.8712 79.9407 30.6826C79.2132 31.4941 77.9992 31.9016 76.2988 31.9052H68.4118V27.5463H74.6851C74.8167 27.5829 74.9546 27.5819 75.0858 27.5436C75.217 27.5052 75.3372 27.4306 75.4352 27.3269C75.5332 27.2232 75.6058 27.0936 75.6462 26.9504C75.6866 26.8072 75.6934 26.655 75.6661 26.5081H75.6612Z" fill="#EFEFEF"/>
<path d="M83.5508 14.7164H88.929V41.1244H83.5581L83.5508 14.7164ZM92.7916 26.0527V20.1135C92.8195 19.8233 92.7458 19.5323 92.5856 19.3003C92.3639 19.12 92.089 19.0387 91.8155 19.0726H85.0909V14.7164H93.4292C95.1328 14.7164 96.3476 15.1248 97.0735 15.9417C97.7995 16.7585 98.1632 17.8862 98.1649 19.3247V26.6735C98.1649 28.0867 97.8011 29.2008 97.0735 30.0158C96.346 30.8308 95.1312 31.2393 93.4292 31.2411H85.5422V27.0476H91.8155C92.089 27.0814 92.3639 27.0001 92.5856 26.8199C92.7421 26.6036 92.816 26.3283 92.7916 26.0527ZM88.9609 28.918H94.2949L99.3666 41.1163H93.618L88.9609 28.918Z" fill="#EFEFEF"/>
<path d="M106.427 20.1135V28.5005H101.056V19.3247C101.056 17.879 101.426 16.7513 102.165 15.9417C102.904 15.1321 104.124 14.7237 105.826 14.7164H108.683V19.0753H107.442C107.163 19.0447 106.883 19.1254 106.653 19.303C106.568 19.4144 106.504 19.5436 106.465 19.6829C106.427 19.8221 106.414 19.9686 106.427 20.1135ZM106.427 27.381V35.7409C106.405 36.0264 106.486 36.31 106.653 36.5297C106.877 36.7215 107.16 36.8108 107.442 36.7791H108.644V41.1379H105.826C104.124 41.1379 102.904 40.7295 102.165 39.9127C101.426 39.0959 101.056 37.9682 101.056 36.5297V27.381H106.427ZM110.223 35.7409V27.5057H115.594V36.5161C115.594 37.9619 115.231 39.0895 114.505 39.8991C113.78 40.7087 112.565 41.1172 110.861 41.1244H107.894V36.7655H109.245C109.377 36.8013 109.514 36.7998 109.645 36.7612C109.776 36.7225 109.896 36.6479 109.994 36.5444C110.091 36.4408 110.164 36.3117 110.205 36.1688C110.245 36.026 110.253 35.8741 110.226 35.7273L110.223 35.7409ZM110.223 28.5141V20.1135C110.251 19.8229 110.176 19.5317 110.015 19.3003C109.793 19.12 109.518 19.0387 109.245 19.0726H107.97V14.7164H110.861C112.563 14.7164 113.778 15.1248 114.505 15.9417C115.233 16.7585 115.596 17.8862 115.594 19.3247V28.5005L110.223 28.5141Z" fill="#EFEFEF"/>
<path d="M118.787 14.7164H124.161V41.1244H118.787V14.7164ZM128.028 26.5081V20.1135C128.056 19.8233 127.982 19.5323 127.822 19.3003C127.601 19.12 127.326 19.0387 127.052 19.0726H120.32V14.7164H128.658C130.36 14.7164 131.575 15.1248 132.303 15.9417C133.03 16.7585 133.393 17.8862 133.392 19.3247V27.2969C133.392 28.7427 133.029 29.8712 132.303 30.6826C131.577 31.4941 130.362 31.9016 128.658 31.9052H120.779V27.5463H127.052C127.184 27.5829 127.322 27.5819 127.453 27.5436C127.584 27.5052 127.704 27.4306 127.802 27.3269C127.9 27.2232 127.973 27.0936 128.013 26.9504C128.054 26.8072 128.06 26.655 128.033 26.5081H128.028Z" fill="#EFEFEF"/>
<path d="M141.291 14.7164V35.7409C141.268 36.0261 141.349 36.3096 141.514 36.5297C141.726 36.7177 141.996 36.8072 142.267 36.7791H143.493V41.1379H140.651C138.947 41.1379 137.733 40.7295 137.007 39.9127C136.281 39.0959 135.918 37.9682 135.918 36.5297V14.7164H141.291ZM145.09 35.7409V14.7164H150.461V36.5161C150.461 37.9619 150.098 39.0895 149.372 39.8991C148.646 40.7087 147.431 41.1172 145.727 41.1244H142.76V36.7655H144.075C144.357 36.7972 144.64 36.708 144.864 36.5161C145.028 36.2999 145.109 36.0219 145.09 35.7409Z" fill="#EFEFEF"/>
<path d="M153.762 14.7164H163.728C165.457 14.7164 166.683 15.1248 167.407 15.9417C168.131 16.7585 168.495 17.8862 168.498 19.3247V23.9329C168.514 24.7464 168.394 25.5561 168.143 26.3211C168.026 26.6565 167.847 26.961 167.618 27.2151C167.388 27.4691 167.112 27.6669 166.809 27.7957C167.1 27.9015 167.368 28.072 167.598 28.2967C167.827 28.5214 168.013 28.7955 168.143 29.1023C168.402 29.8215 168.524 30.5921 168.501 31.3658V36.5161C168.501 37.9619 168.137 39.0895 167.41 39.8991C166.682 40.7087 165.456 41.1172 163.731 41.1244H153.762V14.7164ZM163.191 24.7651V19.8235C163.205 19.6781 163.192 19.5311 163.154 19.3914C163.115 19.2516 163.051 19.122 162.966 19.0102C162.736 18.8325 162.455 18.7517 162.176 18.7825H159.096V25.8033H162.176C162.458 25.8356 162.741 25.7463 162.966 25.5539C163.132 25.3343 163.213 25.0507 163.191 24.7651ZM163.191 36.0174V30.9103C163.205 30.765 163.192 30.618 163.154 30.4783C163.115 30.3385 163.051 30.2089 162.966 30.0971C162.736 29.9194 162.455 29.8386 162.176 29.8694H159.096V37.0529H162.176C162.458 37.0851 162.741 36.9958 162.966 36.8035C163.049 36.6944 163.111 36.5683 163.15 36.4325C163.188 36.2967 163.203 36.1538 163.191 36.0119V36.0174Z" fill="#EFEFEF"/>
<path d="M171.642 14.7164H177.016V41.1244H171.642V14.7164ZM173.634 41.1244V36.7655H183.89V41.1244H173.634Z" fill="#EFEFEF"/>
<path d="M185.692 14.7164H191.066V41.1244H185.692V14.7164Z" fill="#EFEFEF"/>
<path d="M199.742 19.8235V36.0119C199.729 36.1573 199.741 36.3043 199.78 36.444C199.819 36.5838 199.883 36.7134 199.968 36.8252C200.198 37.0034 200.478 37.0842 200.758 37.0529H201.739V41.119H199.105C197.4 41.119 196.178 40.7106 195.441 39.8937C194.704 39.0769 194.334 37.9637 194.332 36.5541V19.3247C194.332 17.879 194.702 16.7513 195.441 15.9417C196.18 15.1321 197.401 14.7237 199.105 14.7164H201.847V18.7825H200.76C200.481 18.7512 200.201 18.832 199.971 19.0102C199.885 19.1218 199.82 19.2513 199.781 19.3911C199.742 19.5308 199.729 19.6779 199.742 19.8235ZM203.274 23.9763V19.8235C203.302 19.5332 203.229 19.242 203.068 19.0102C202.846 18.8305 202.571 18.7492 202.298 18.7825H201.207V14.7164H203.904C205.608 14.7164 206.829 15.1248 207.568 15.9417C208.307 16.7585 208.677 17.8862 208.677 19.3247V23.9763H203.274ZM203.274 36.0174V31.9892H208.684V36.5541C208.684 37.9655 208.315 39.0796 207.576 39.8964C206.837 40.7133 205.615 41.1217 203.912 41.1217H201.214V37.0556H202.305C202.579 37.0889 202.854 37.0077 203.075 36.8279C203.234 36.5943 203.305 36.302 203.274 36.0119V36.0174Z" fill="#EFEFEF"/>
</svg>
