<svg width="337" height="99" viewBox="0 0 337 99" fill="none" xmlns="http://www.w3.org/2000/svg">
<path d="M0 0L20.4704 13.4321V79.0718L33.6019 87.7095V14.3392H71.3035V32.1976L54.3618 43.3114V60.188L84.435 40.4584V0H0Z" fill="white"/>
<path d="M71.3027 87.7212L84.4343 79.0835V45.4441L71.3027 54.0555V87.7212Z" fill="white"/>
<path d="M37.416 90.2137L50.5475 98.8515V29.8285L37.416 21.2127V90.2137Z" fill="white"/>
<path d="M106.344 22.981H115.027V65.6744H106.344V22.981ZM121.283 42.0444V31.7063C121.328 31.2372 121.209 30.7667 120.95 30.3916C120.592 30.1002 120.147 29.9687 119.705 30.0235H108.834V22.981H122.314C125.066 22.981 127.028 23.6412 128.202 24.9618C129.375 26.2824 129.964 28.1055 129.966 30.4311V43.3197C129.966 45.657 129.378 47.4816 128.202 48.7934C127.026 50.1052 125.063 50.764 122.314 50.7698H109.563V43.7229H119.705C119.918 43.782 120.141 43.7805 120.353 43.7184C120.565 43.6564 120.759 43.5359 120.918 43.3682C121.076 43.2004 121.194 42.991 121.259 42.7595C121.324 42.528 121.335 42.282 121.291 42.0444H121.283Z" fill="#EFEFEF"/>
<path d="M134.039 22.981H142.734V65.6744H134.051L134.039 22.981ZM148.979 41.3082V31.7063C149.024 31.2372 148.905 30.7667 148.645 30.3916C148.287 30.1002 147.843 29.9687 147.401 30.0235H136.529V22.981H150.009C152.764 22.981 154.728 23.6412 155.901 24.9618C157.075 26.2824 157.663 28.1055 157.665 30.4311V42.3118C157.665 44.5965 157.077 46.3976 155.901 47.7153C154.725 49.0329 152.761 49.6932 150.009 49.6961H137.259V42.9165H147.401C147.843 42.9713 148.287 42.8399 148.645 42.5484C148.898 42.1988 149.018 41.7538 148.979 41.3082ZM142.785 45.9404H151.409L159.608 65.6612H150.315L142.785 45.9404Z" fill="#EFEFEF"/>
<path d="M171.023 31.7063V45.2655H162.34V30.4311C162.34 28.0938 162.937 26.2707 164.132 24.9618C165.327 23.6529 167.3 22.9927 170.051 22.981H174.67V30.0279H172.664C172.213 29.9784 171.76 30.109 171.388 30.396C171.25 30.5761 171.147 30.785 171.085 31.0101C171.022 31.2353 171.001 31.472 171.023 31.7063ZM171.023 43.4556V56.9709C170.987 57.4326 171.118 57.8911 171.388 58.2462C171.751 58.5563 172.208 58.7006 172.664 58.6494H174.607V65.6963H170.051C167.3 65.6963 165.327 65.036 164.132 63.7155C162.937 62.3949 162.34 60.5718 162.34 58.2462V43.4556H171.023ZM177.16 56.9709V43.6572H185.843V58.2243C185.843 60.5616 185.257 62.3847 184.083 63.6935C182.909 65.0024 180.945 65.6627 178.191 65.6744H173.394V58.6275H175.578C175.791 58.6853 176.013 58.6829 176.225 58.6204C176.437 58.5579 176.63 58.4374 176.789 58.27C176.947 58.1026 177.064 57.8937 177.13 57.6628C177.196 57.4319 177.207 57.1863 177.164 56.949L177.16 56.9709ZM177.16 45.2874V31.7063C177.205 31.2365 177.084 30.7658 176.823 30.3916C176.465 30.1002 176.021 29.9687 175.578 30.0235H173.517V22.981H178.191C180.943 22.981 182.907 23.6412 184.083 24.9618C185.259 26.2824 185.846 28.1055 185.843 30.4311V45.2655L177.16 45.2874Z" fill="#EFEFEF"/>
<path d="M191.006 22.981H199.693V65.6744H191.006V22.981ZM205.945 42.0444V31.7063C205.991 31.2372 205.871 30.7667 205.612 30.3916C205.254 30.1002 204.809 29.9687 204.367 30.0235H193.484V22.981H206.964C209.716 22.981 211.68 23.6412 212.856 24.9618C214.032 26.2824 214.619 28.1055 214.616 30.4311V43.3197C214.616 45.657 214.03 47.4816 212.856 48.7934C211.682 50.1052 209.719 50.764 206.964 50.7698H194.225V43.7229H204.367C204.58 43.782 204.803 43.7805 205.015 43.7184C205.227 43.6564 205.422 43.5359 205.58 43.3682C205.738 43.2004 205.856 42.991 205.921 42.7595C205.986 42.528 205.997 42.282 205.953 42.0444H205.945Z" fill="#EFEFEF"/>
<path d="M227.386 22.981V56.9709C227.349 57.432 227.479 57.8904 227.747 58.2462C228.09 58.5502 228.526 58.6948 228.964 58.6494H230.947V65.6963H226.351C223.597 65.6963 221.633 65.036 220.46 63.7155C219.286 62.3949 218.699 60.5718 218.699 58.2462V22.981H227.386ZM233.528 56.9709V22.981H242.211V58.2243C242.211 60.5616 241.624 62.3847 240.45 63.6935C239.277 65.0024 237.313 65.6627 234.559 65.6744H229.761V58.6275H231.886C232.343 58.6787 232.8 58.5344 233.163 58.2243C233.427 57.8748 233.558 57.4252 233.528 56.9709Z" fill="#EFEFEF"/>
<path d="M247.547 22.981H263.66C266.454 22.981 268.436 23.6412 269.607 24.9618C270.778 26.2824 271.366 28.1055 271.372 30.4311V37.8812C271.397 39.1963 271.202 40.5054 270.797 41.7421C270.608 42.2843 270.319 42.7767 269.947 43.1874C269.576 43.5981 269.13 43.9179 268.64 44.1261C269.111 44.2971 269.545 44.5727 269.916 44.936C270.287 45.2992 270.586 45.7424 270.797 46.2384C271.215 47.4012 271.412 48.6469 271.376 49.8977V58.2243C271.376 60.5616 270.787 62.3847 269.611 63.6935C268.435 65.0024 266.453 65.6627 263.664 65.6744H247.547V22.981ZM262.792 39.2266V31.2374C262.814 31.0024 262.793 30.7648 262.731 30.5389C262.668 30.3129 262.565 30.1034 262.427 29.9227C262.055 29.6353 261.602 29.5047 261.15 29.5546H256.17V40.905H261.15C261.607 40.9572 262.064 40.8128 262.427 40.5018C262.696 40.1467 262.827 39.6882 262.792 39.2266ZM262.792 57.4179V49.1615C262.814 48.9265 262.793 48.6889 262.731 48.4629C262.668 48.237 262.565 48.0274 262.427 47.8468C262.055 47.5593 261.602 47.4287 261.15 47.4786H256.17V59.092H261.15C261.607 59.1442 262.064 58.9998 262.427 58.6888C262.561 58.5125 262.662 58.3087 262.724 58.0891C262.787 57.8695 262.81 57.6385 262.792 57.4092V57.4179Z" fill="#EFEFEF"/>
<path d="M276.455 22.981H285.142V65.6744H276.455V22.981ZM279.675 65.6744V58.6275H296.255V65.6744H279.675Z" fill="#EFEFEF"/>
<path d="M299.172 22.981H307.859V65.6744H299.172V22.981Z" fill="#EFEFEF"/>
<path d="M321.885 31.2374V57.4092C321.863 57.6442 321.883 57.8818 321.946 58.1077C322.009 58.3337 322.112 58.5432 322.25 58.7239C322.622 59.012 323.075 59.1427 323.527 59.092H325.112V65.6656H320.854C318.097 65.6656 316.123 65.0053 314.931 63.6848C313.739 62.3642 313.141 60.5645 313.139 58.2857V30.4311C313.139 28.0938 313.736 26.2707 314.931 24.9618C316.126 23.6529 318.1 22.9927 320.854 22.981H325.287V29.5546H323.531C323.079 29.5039 322.626 29.6346 322.254 29.9227C322.115 30.103 322.011 30.3124 321.948 30.5384C321.884 30.7643 321.863 31.0021 321.885 31.2374ZM327.594 37.9513V31.2374C327.64 30.7682 327.521 30.2973 327.261 29.9227C326.903 29.6321 326.459 29.5007 326.016 29.5546H324.252V22.981H328.613C331.368 22.981 333.342 23.6412 334.537 24.9618C335.732 26.2824 336.329 28.1055 336.329 30.4311V37.9513H327.594ZM327.594 57.4179V50.9057H336.341V58.2857C336.341 60.5674 335.743 62.3686 334.549 63.6892C333.354 65.0097 331.38 65.67 328.625 65.67H324.264V59.0964H326.028C326.47 59.1503 326.915 59.0189 327.273 58.7283C327.53 58.3506 327.645 57.8782 327.594 57.4092V57.4179Z" fill="#EFEFEF"/>
</svg>
