<svg width="80" height="80" viewBox="0 0 80 80" fill="none" xmlns="http://www.w3.org/2000/svg">
<g clip-path="url(#clip0_681_2358)">
<path fill-rule="evenodd" clip-rule="evenodd" d="M60.5502 9.21666L61.4002 9.32333C63.6468 9.63333 66.6202 10.05 68.3035 11.7367C69.6835 13.1133 70.2135 15.3533 70.5302 17.3533L70.7168 18.64C71.1368 21.6733 71.2468 25.6467 70.5302 30.06C69.1168 38.77 64.4802 49.1633 52.8368 57.21C52.7735 57.8367 52.7702 58.47 52.7835 59.1033L52.8168 60.05C52.8702 61.5067 52.9235 62.9633 52.5168 64.3767C51.8835 66.5767 49.6268 68.0267 47.5168 69.0667L46.4835 69.5567L45.1502 70.1433C42.6568 71.2033 39.2902 72.29 37.1802 70.1767C35.9135 68.9133 35.3935 67.06 34.9702 65.2167L34.8135 64.5267C34.637 63.6555 34.4145 62.7943 34.1468 61.9467C33.9802 61.46 33.8002 60.9633 33.6068 60.4633C33.394 60.7246 33.1682 60.9749 32.9302 61.2133C31.7802 62.3633 30.0635 63.1667 28.6502 63.73C27.1068 64.34 25.3602 64.8733 23.7435 65.3133L22.9135 65.5333L21.3235 65.93L19.8835 66.2633L18.1602 66.63L17.0835 66.84C16.5465 66.9394 15.9934 66.9067 15.4719 66.7447C14.9504 66.5828 14.4761 66.2963 14.09 65.9102C13.7038 65.524 13.4174 65.0498 13.2554 64.5282C13.0934 64.0067 13.0607 63.4536 13.1602 62.9167L13.4468 61.48L13.9602 59.1533L14.3735 57.4533L14.6868 56.2533C15.1268 54.64 15.6602 52.8933 16.2735 51.3533C16.8335 49.9367 17.6368 48.22 18.7868 47.07L19.0535 46.8133L18.8402 46.7267C18.2705 46.5101 17.6935 46.3133 17.1102 46.1367L16.1868 45.8533C13.8735 45.1533 11.4002 44.4 9.86349 42.86C7.99683 40.9967 8.62683 38.16 9.52683 35.8L9.89349 34.8867L10.4835 33.5533L10.9735 32.52C12.0135 30.4133 13.4635 28.1567 15.6635 27.5233C16.8302 27.19 18.0435 27.17 19.2635 27.2033L19.9968 27.2267C20.9502 27.26 21.9002 27.2967 22.8302 27.2067C30.8768 15.56 41.2702 10.9233 49.9802 9.51C53.4742 8.93691 57.0297 8.83824 60.5502 9.21666ZM27.8435 51.4667C27.3189 51.0784 26.6919 50.8524 26.0401 50.8169C25.3884 50.7813 24.7406 50.9377 24.1768 51.2667L23.8102 51.5133L23.5002 51.79L23.0835 52.3167C22.2168 53.57 21.7235 55.3033 21.3402 56.9233L20.9802 58.4833L20.8102 59.1933L21.4468 59.04L22.8402 58.72C24.7668 58.27 26.9035 57.6867 28.2168 56.5033C28.7879 55.9326 29.1324 55.174 29.1863 54.3684C29.2402 53.5629 29 52.7651 28.5102 52.1233L28.2368 51.81L28.1568 51.7333L27.8435 51.4667ZM51.7868 28.22C51.1679 27.6008 50.433 27.1096 49.6242 26.7744C48.8154 26.4392 47.9485 26.2666 47.073 26.2665C46.1975 26.2663 45.3305 26.4386 44.5216 26.7735C43.7127 27.1084 42.9777 27.5994 42.3585 28.2183C41.7393 28.8373 41.2481 29.5722 40.9129 30.381C40.5777 31.1898 40.4051 32.0567 40.405 32.9322C40.4048 33.8077 40.5771 34.6746 40.912 35.4835C41.2469 36.2924 41.7379 37.0275 42.3568 37.6467C43.6069 38.8972 45.3025 39.5999 47.0706 39.6002C48.8388 39.6005 50.5347 38.8984 51.7852 37.6483C53.0357 36.3983 53.7384 34.7027 53.7387 32.9345C53.739 31.1664 53.0369 29.4705 51.7868 28.22Z" fill="#FE0037"/>
</g>
<defs>
<clipPath id="clip0_681_2358">
<rect width="80" height="80" fill="white"/>
</clipPath>
</defs>
</svg>
