<svg width="80" height="80" viewBox="0 0 80 80" fill="none" xmlns="http://www.w3.org/2000/svg">
<g clip-path="url(#clip0_408_732)">
<path d="M36.8518 13.7966C37.1727 13.2499 37.6323 12.7964 38.1849 12.4811C38.7375 12.1659 39.3637 12 40.0011 12C40.6384 12 41.2646 12.1659 41.8172 12.4811C42.3698 12.7964 42.8295 13.2499 43.1504 13.7966L51.3007 27.6855L67.129 31.0897C67.7516 31.224 68.3279 31.518 68.8003 31.9423C69.2728 32.3666 69.625 32.9065 69.8218 33.5081C70.0186 34.1096 70.0531 34.7519 69.9219 35.3708C69.7907 35.9897 69.4983 36.5637 69.074 37.0355L58.2846 49.0226L59.9176 65.016C59.982 65.6458 59.8789 66.2813 59.6185 66.8591C59.3581 67.437 58.9496 67.9369 58.4337 68.3089C57.9178 68.681 57.3127 68.9122 56.6786 68.9795C56.0446 69.0468 55.4038 68.9478 54.8204 68.6923L40.0011 62.2081L25.1818 68.6923C24.5984 68.9478 23.9576 69.0468 23.3236 68.9795C22.6895 68.9122 22.0843 68.681 21.5685 68.3089C21.0526 67.9369 20.644 67.437 20.3837 66.8591C20.1233 66.2813 20.0201 65.6458 20.0846 65.016L21.7175 49.0226L10.9282 37.0384C10.5031 36.5666 10.2102 35.9924 10.0785 35.3731C9.94689 34.7538 9.98121 34.111 10.178 33.509C10.3749 32.907 10.7274 32.3667 11.2003 31.9422C11.6732 31.5177 12.2501 31.2237 12.8732 31.0897L28.7015 27.6855L36.8518 13.7966Z" fill="#FE0037"/>
</g>
<defs>
<clipPath id="clip0_408_732">
<rect width="80" height="80" fill="white"/>
</clipPath>
</defs>
</svg>
