<svg width="80" height="80" viewBox="0 0 80 80" fill="none" xmlns="http://www.w3.org/2000/svg">
<g clip-path="url(#clip0_681_2354)">
<path fill-rule="evenodd" clip-rule="evenodd" d="M63.57 13.0967C64.454 13.0967 65.3019 13.4479 65.927 14.073C66.5521 14.6981 66.9033 15.5459 66.9033 16.43V35.2867C66.9035 35.8078 66.7814 36.3217 66.547 36.7872C66.3125 37.2526 65.9722 37.6566 65.5533 37.9667L41.56 55.7L44.7133 58.8567C45.3382 59.4818 45.6893 60.3295 45.6893 61.2133C45.6893 62.0972 45.3382 62.9449 44.7133 63.57L40 68.2833C39.5052 68.7776 38.8676 69.1038 38.1772 69.2157C37.4869 69.3275 36.7788 69.2194 36.1533 68.9067L28.8733 65.27L23.5 70.64C22.8749 71.2649 22.0272 71.616 21.1433 71.616C20.2594 71.616 19.4117 71.2649 18.7867 70.64L9.35999 61.2133C8.73508 60.5882 8.38403 59.7405 8.38403 58.8567C8.38403 57.9728 8.73508 57.1251 9.35999 56.5L14.73 51.1267L11.0933 43.8467C10.7806 43.2211 10.6725 42.5131 10.7843 41.8228C10.8962 41.1324 11.2224 40.4947 11.7167 40L16.43 35.2867C17.0551 34.6618 17.9028 34.3107 18.7867 34.3107C19.6705 34.3107 20.5182 34.6618 21.1433 35.2867L24.3 38.44L42.0333 14.4467C42.3434 14.0278 42.7474 13.6875 43.2128 13.453C43.6782 13.2186 44.1922 13.0965 44.7133 13.0967H63.57Z" fill="#FE0037"/>
</g>
<defs>
<clipPath id="clip0_681_2354">
<rect width="80" height="80" fill="white"/>
</clipPath>
</defs>
</svg>
