<svg width="80" height="80" viewBox="0 0 80 80" fill="none" xmlns="http://www.w3.org/2000/svg">
<g clip-path="url(#clip0_408_738)">
<path fill-rule="evenodd" clip-rule="evenodd" d="M40.1183 10C43.4056 10 46.4971 10.876 49.1577 12.4119C49.5178 12.5994 49.8361 12.8575 50.0933 13.1707C50.3506 13.4839 50.5416 13.8456 50.6549 14.2342C50.7681 14.6227 50.8012 15.0301 50.7522 15.4317C50.7032 15.8334 50.5731 16.221 50.3697 16.5713C50.1664 16.9215 49.8939 17.2272 49.5688 17.47C49.2437 17.7127 48.8726 17.8875 48.4779 17.9837C48.0832 18.08 47.673 18.0957 47.272 18.0301C46.871 17.9644 46.4875 17.8187 46.1446 17.6016C44.3119 16.5482 42.233 15.9938 40.1168 15.994C38.0007 15.9943 35.9219 16.5492 34.0895 17.603C32.2571 18.6569 30.7357 20.1725 29.6783 21.9974C28.6209 23.8223 28.0647 25.8923 28.0657 27.9991L61.2103 28.0021C62.8085 28.0021 64.3414 28.6342 65.4715 29.7594C66.6016 30.8845 67.2366 32.4106 67.2366 34.0018V64.0003C67.2366 65.5915 66.6016 67.1176 65.4715 68.2427C64.3414 69.3679 62.8085 70 61.2103 70H19.0263C17.428 70 15.8952 69.3679 14.7651 68.2427C13.6349 67.1176 13 65.5915 13 64.0003V33.9988C13 32.4076 13.6349 30.8815 14.7651 29.7564C15.8952 28.6312 17.428 27.9991 19.0263 27.9991H22.0394C22.0394 23.2254 23.9442 18.6473 27.3346 15.2718C30.725 11.8963 35.3235 10 40.1183 10ZM40.1183 39.9985C38.7917 39.9986 37.5023 40.4344 36.4499 41.2384C35.3975 42.0424 34.6409 43.1697 34.2976 44.4453C33.9543 45.721 34.0433 47.0739 34.5509 48.294C35.0585 49.5142 35.9564 50.5335 37.1051 51.1939V54.9977C37.1051 55.7934 37.4226 56.5564 37.9877 57.119C38.5527 57.6815 39.3191 57.9976 40.1183 57.9976C40.9174 57.9976 41.6838 57.6815 42.2489 57.119C42.814 56.5564 43.1314 55.7934 43.1314 54.9977V51.1939C44.2802 50.5335 45.178 49.5142 45.6856 48.294C46.1932 47.0739 46.2823 45.721 45.939 44.4453C45.5956 43.1697 44.8391 42.0424 43.7867 41.2384C42.7343 40.4344 41.4448 39.9986 40.1183 39.9985ZM63.9763 19.0625L66.887 19.8425C67.6292 20.0738 68.2528 20.5818 68.6274 21.2603C69.002 21.9388 69.0986 22.7352 68.897 23.483C68.6954 24.2307 68.2112 24.872 67.5457 25.2725C66.8802 25.6731 66.085 25.802 65.3262 25.6322L62.4185 24.8583C61.6499 24.6496 60.9955 24.1464 60.5985 23.4587C60.2016 22.771 60.0943 21.9548 60.3003 21.1885C60.5062 20.4223 61.0086 19.7685 61.6975 19.3701C62.3864 18.9717 63.2058 18.8611 63.9763 19.0625ZM60.1045 10.27C60.4867 10.372 60.8451 10.5479 61.159 10.7878C61.4729 11.0277 61.7364 11.3268 61.9342 11.6681C62.132 12.0093 62.2604 12.386 62.3119 12.7767C62.3635 13.1673 62.3373 13.5643 62.2347 13.9448L61.846 15.3907C61.7452 15.7729 61.5696 16.1315 61.3292 16.4459C61.0888 16.7603 60.7884 17.0243 60.4452 17.2227C60.1021 17.4212 59.7229 17.5502 59.3295 17.6024C58.9361 17.6545 58.5362 17.6288 58.1528 17.5267C57.7694 17.4245 57.4101 17.248 57.0954 17.0072C56.7808 16.7664 56.517 16.4661 56.3192 16.1235C56.1215 15.7809 55.9937 15.4028 55.9431 15.0109C55.8926 14.619 55.9203 14.221 56.0247 13.8398L56.4164 12.3909C56.6233 11.6229 57.128 10.9682 57.8195 10.5705C58.5111 10.1728 59.3329 10.0647 60.1045 10.27Z" fill="#FE0037"/>
</g>
<defs>
<clipPath id="clip0_408_738">
<rect width="80" height="80" fill="white"/>
</clipPath>
</defs>
</svg>
