<svg width="80" height="80" viewBox="0 0 80 80" fill="none" xmlns="http://www.w3.org/2000/svg">
<g clip-path="url(#clip0_408_726)">
<path d="M80 20V15.196C80.0005 14.7761 79.9182 14.3603 79.7578 13.9723C79.5974 13.5843 79.362 13.2318 79.0651 12.9349C78.7682 12.638 78.4157 12.4026 78.0277 12.2422C77.6397 12.0818 77.2239 11.9995 76.804 12H3.204C2.78377 11.9995 2.36755 12.0817 1.97911 12.2421C1.59067 12.4024 1.23761 12.6377 0.940089 12.9344C0.64257 13.2312 0.406418 13.5837 0.245118 13.9717C0.0838178 14.3598 0.000527463 14.7758 2.50336e-06 15.196V20H8V28H2.50336e-06V36H8V44H2.50336e-06V52H8V60H2.50336e-06V64.796C-0.000523955 65.2169 0.0819906 65.6338 0.24282 66.0227C0.40365 66.4117 0.639635 66.7651 0.937258 67.0627C1.23488 67.3604 1.5883 67.5964 1.97726 67.7572C2.36623 67.918 2.7831 68.0005 3.204 68H76.804C77.2242 67.9995 77.6402 67.9162 78.0283 67.7549C78.4163 67.5936 78.7688 67.3574 79.0656 67.0599C79.3624 66.7624 79.5976 66.4093 79.7579 66.0209C79.9183 65.6325 80.0005 65.2162 80 64.796V60H72V52H80V44H72V36H80V28H72V20H80ZM32 52V28L52 40L32 52Z" fill="#FE0037"/>
</g>
<defs>
<clipPath id="clip0_408_726">
<rect width="80" height="80" fill="white"/>
</clipPath>
</defs>
</svg>
